Coordinates
version=1
nRows=10
nColumns=63
inDegrees=yes

Units are S.I. units (second, meters, Newtons, ...)
If the header above contains a line with 'inDegrees', this indicates whether rotational values are in degrees (yes) or radians (no).

endheader
time	pelvis_tilt	pelvis_list	pelvis_rotation	pelvis_tx	pelvis_ty	pelvis_tz	hip_flexion_r	hip_adduction_r	hip_rotation_r	knee_angle_r	knee_angle_r_beta	ankle_angle_r	subtalar_angle_r	mtp_angle_r	hip_flexion_l	hip_adduction_l	hip_rotation_l	knee_angle_l	knee_angle_l_beta	ankle_angle_l	subtalar_angle_l	mtp_angle_l	L5_S1_Flex_Ext	L5_S1_Lat_Bending	L5_S1_axial_rotation	L4_L5_Flex_Ext	L4_L5_Lat_Bending	L4_L5_axial_rotation	L3_L4_Flex_Ext	L3_L4_Lat_Bending	L3_L4_axial_rotation	L2_L3_Flex_Ext	L2_L3_Lat_Bending	L2_L3_axial_rotation	L1_L2_Flex_Ext	L1_L2_Lat_Bending	L1_L2_axial_rotation	L1_T12_Flex_Ext	L1_T12_Lat_Bending	L1_T12_axial_rotation	Abs_r3	Abs_r2	Abs_r1	Abs_t1	Abs_t2	neck_flexion	neck_bending	neck_rotation	arm_flex_r	arm_add_r	arm_rot_r	elbow_flex_r	pro_sup_r	wrist_flex_r	wrist_dev_r	arm_flex_l	arm_add_l	arm_rot_l	elbow_flex_l	pro_sup_l	wrist_flex_l	wrist_dev_l
      1.55000000	      6.17768629	     -2.27427292	    113.83154734	      0.30656504	      0.54431994	      0.94542076	     11.14658855	     -0.17597015	    -19.71988079	     17.99245316	      0.31402755	     35.30688239	     13.70842694	      0.00000000	      5.02793972	     -0.68935624	     -5.09854636	      5.62952071	      0.09825367	     28.87223966	     11.35953233	      0.00000000	     -0.07293379	      0.45645372	     -1.02317848	     -0.13544534	      0.60708345	     -1.08712714	     -0.11982292	      1.10982158	     -1.08712714	     -0.08335603	      1.10982158	     -0.89528117	     -0.06772631	      0.93080043	     -0.83133252	     -0.04167437	      0.70704681	     -0.76738386	     -0.52095875	      5.16349578	     -5.69061177	      0.00000000	      0.00000000	     23.09491283	      2.66396189	     10.42687949	      8.69149694	    -14.56516551	    129.27409974	      5.41874347	      1.67686477	     -7.84438017	    -18.36217504	      4.55235210	     -9.72075280	    168.77138440	      2.74584335	      5.73949978	    -11.67860265	     -3.78269395
      1.57500000	      6.37820550	     -2.30304587	    113.68455339	      0.30644106	      0.54473827	      0.94532669	     11.00925827	      0.08892773	    -19.66844144	     17.40320705	      0.30374326	     35.18955961	     14.37670877	      0.00000000	      5.11578062	     -0.92435501	     -6.09371370	      5.57445410	      0.09729258	     28.87383649	     12.24383476	      0.00000000	     -0.04795348	      0.48391717	     -1.09357866	     -0.08905441	      0.64360984	     -1.16192733	     -0.07878277	      1.17659621	     -1.16192733	     -0.05480603	      1.17659621	     -0.95688133	     -0.04452960	      0.98680389	     -0.88853266	     -0.02740062	      0.74958770	     -0.82018400	     -0.34252691	      5.47416782	     -6.08215645	      0.00000000	      0.00000000	     22.77025836	      2.67878825	     10.97515081	      9.40038148	    -14.88490721	    129.10069673	      4.71260086	      1.71740507	     -8.54103081	    -18.44358256	      4.40270838	    -11.62492051	    147.00331832	      4.41312920	      5.32794567	     -9.37284458	     -8.43469320
      1.60000000	      6.44886627	     -2.24307283	    113.57976858	      0.30644927	      0.54519439	      0.94551628	     10.79662980	      0.23866776	    -19.59160901	     16.93677563	      0.29560250	     35.11900398	     14.82702931	      0.00000000	      5.05169604	     -1.03535677	     -6.56783826	      5.43359716	      0.09483416	     28.70178721	     12.38652918	      0.00000000	     -0.03116920	      0.48805434	     -1.06543453	     -0.05788431	      0.64911227	     -1.13202419	     -0.05120787	      1.18665531	     -1.13202419	     -0.03562327	      1.18665531	     -0.93225521	     -0.02894372	      0.99524040	     -0.86566556	     -0.01781008	      0.75599617	     -0.79907590	     -0.22263845	      5.52096827	     -5.92562723	      0.00000000	      0.00000000	     22.25963268	      2.51949138	     10.37207046	      9.96639875	    -15.06756706	    130.85485980	      3.29486041	      1.53193507	     -8.74340649	    -17.42561950	      4.38908841	    -13.64444267	    128.35191705	      5.95245756	      4.60504121	     -6.16404257	    -10.93421398
      1.62500000	      6.36469606	     -2.04938897	    113.68851420	      0.30637681	      0.54574252	      0.94573034	     10.27563462	      0.29094858	    -19.62963394	     16.34510233	      0.28527585	     34.94276218	     14.89089333	      0.00000000	      4.77334121	     -1.03081420	     -6.65979936	      5.25057390	      0.09163980	     28.34726722	     12.34584306	      0.00000000	     -0.02894033	      0.46280197	     -0.94932579	     -0.05374508	      0.61552662	     -1.00865865	     -0.04754606	      1.12525671	     -1.00865865	     -0.03307590	      1.12525671	     -0.83066007	     -0.02687399	      0.94374578	     -0.77132720	     -0.01653650	      0.71688025	     -0.71199434	     -0.20671786	      5.23530845	     -5.27986525	      0.00000000	      0.00000000	     21.64923489	      1.98252394	      8.11982283	     10.49964479	    -15.24338233	    132.02346710	      2.11518561	      1.63112142	     -8.83206417	    -15.20655060	      4.95293287	    -15.19038633	    120.81454494	      6.03571253	      2.41881518	     -3.22616023	    -10.40902091
      1.65000000	      6.29695156	     -1.82373473	    114.16471029	      0.30548085	      0.54585836	      0.94620082	      9.77436342	      0.22325064	    -20.03591247	     16.15264036	      0.28191676	     34.57786268	     14.40680058	      0.00000000	      4.53111754	     -1.00119086	     -6.12761358	      5.18882420	      0.09056207	     27.87944640	     12.09572656	      0.00000000	     -0.02922535	      0.44073021	     -0.94351500	     -0.05427439	      0.58617118	     -1.00248469	     -0.04801432	      1.07159143	     -1.00248469	     -0.03340165	      1.07159143	     -0.82557563	     -0.02713866	      0.89873705	     -0.76660594	     -0.01669936	      0.68269110	     -0.70763625	     -0.20875372	      4.98562829	     -5.24754738	      0.00000000	      0.00000000	     21.07853444	      2.12334339	      6.62815067	     11.47156459	    -15.57932435	    137.59951468	      1.09774274	      1.61285820	     -9.83604418	    -12.49669965	      5.25170278	    -16.41133932	    109.53193509	      6.31326630	      4.71059587	     -2.78064574	     -8.64432411
      1.67500000	      5.99230397	     -1.62824564	    114.74411285	      0.30461712	      0.54574735	      0.94607242	      9.04698790	     -0.03844902	    -20.45520220	     15.95823746	      0.27852379	     34.06248682	     13.47930260	      0.00000000	      4.12245629	     -0.73811925	     -5.22649645	      5.03789967	      0.08792794	     27.31409995	     11.73277060	      0.00000000	     -0.03825907	      0.37239566	     -0.90181490	     -0.07105091	      0.49528623	     -0.95817833	     -0.06285582	      0.90544281	     -0.95817833	     -0.04372629	      0.90544281	     -0.78908804	     -0.03552737	      0.75938923	     -0.73272461	     -0.02186123	      0.57684088	     -0.67636117	     -0.27328068	      4.21261420	     -5.01562393	      0.00000000	      0.00000000	     20.72273932	      2.20939202	      4.05965387	     12.46638257	    -15.68779074	    142.09204023	      0.79628951	      2.15303111	    -10.55147705	     -9.94125747	      5.95114255	    -17.29518562	    106.24408341	      5.88009292	      4.93467788	     -2.66739209	     -5.37981885
      1.70000000	      5.54617902	     -1.53425922	    115.44182202	      0.30370520	      0.54579691	      0.94534727	      8.22652560	     -0.42979543	    -20.94688201	     15.72666754	      0.27448213	     33.29510992	     12.19186831	      0.00000000	      3.68424357	     -0.30187319	     -3.93476593	      4.84989409	      0.08464662	     26.67921355	     11.18804268	      0.00000000	     -0.04607728	      0.28350940	     -0.92757544	     -0.08557011	      0.37706750	     -0.98554891	     -0.07570036	      0.68932475	     -0.98554891	     -0.05266172	      0.68932475	     -0.81162851	     -0.04278736	      0.57813236	     -0.75365505	     -0.02632856	      0.43915606	     -0.69568158	     -0.32912539	      3.20711500	     -5.15889634	      0.00000000	      0.00000000	     20.48134247	      2.52644970	      1.99903596	     13.63341206	    -15.11322482	    145.63197868	      0.73932116	      2.76572357	     -9.94437473	     -8.16379333	      6.88664990	    -17.69394327	    106.22262372	      5.54198729	      5.51682788	     -2.92122576	     -1.68063689
      1.72500000	      5.05090419	     -1.56088868	    116.13674374	      0.30278384	      0.54651378	      0.94444468	      7.41037785	     -0.91316239	    -21.71833182	     15.38358808	      0.26849426	     32.28405135	     11.19607507	      0.00000000	      3.36224943	      0.19731834	     -3.14655662	      4.76624070	      0.08318659	     26.07623094	     11.41438773	      0.00000000	     -0.04106365	      0.20959881	     -1.01929327	     -0.07625930	      0.27876642	     -1.08299910	     -0.06746347	      0.50961855	     -1.08299910	     -0.04693164	      0.50961855	     -0.89188161	     -0.03813170	      0.42741390	     -0.82817578	     -0.02346377	      0.32466856	     -0.76446995	     -0.29331353	      2.37102368	     -5.66900339	      0.00000000	      0.00000000	     20.09215410	      2.90304327	      1.55923334	     14.95747854	    -13.78764916	    146.18673423	      0.89143604	      3.01578273	     -8.43438555	     -7.70241806	      8.53550644	    -17.19987908	    108.75049602	      5.35869938	      7.78720499	     -3.30853968	      1.85572841
      1.75000000	      4.81863863	     -1.61040935	    116.96829822	      0.30182687	      0.54775892	      0.94405704	      6.79191214	     -1.07348575	    -22.08089342	     14.97895965	      0.26143216	     30.97048922	      9.40985669	      0.00000000	      3.33618856	      0.54028642	     -0.34530080	      4.91495095	      0.08578208	     25.24359778	      9.01046743	      0.00000000	     -0.01807713	      0.19361036	     -1.14836617	     -0.03357104	      0.25750177	     -1.22013905	     -0.02969892	      0.47074422	     -1.22013905	     -0.02066035	      0.47074422	     -1.00482040	     -0.01678643	      0.39481024	     -0.93304751	     -0.01032927	      0.29990244	     -0.86127463	     -0.12912315	      2.19015906	     -6.38686812	      0.00000000	      0.00000000	     19.53762377	      2.68604340	      2.09444522	     16.40713751	    -12.05427668	    142.48048651	      1.33453318	      2.47346828	     -6.32260203	     -8.63973238	     11.14692862	    -15.41641198	    120.74627664	      4.07565128	      8.47716688	     -1.89960808	      2.88663866
      1.77500000	      4.66200512	     -1.43040621	    118.13286047	      0.29948318	      0.54946086	      0.94390406	      5.91255292	     -1.16878367	    -23.19980337	     14.40832557	      0.25147272	     29.99958623	      8.82772100	      0.00000000	      2.96554838	      0.68010694	      0.87968344	      4.73104867	      0.08257238	     24.68550198	      9.36749609	      0.00000000	     -0.00864386	      0.22718682	     -1.41650819	     -0.01605252	      0.30215848	     -1.50503995	     -0.01420100	      0.55238204	     -1.50503995	     -0.00987907	      0.55238204	     -1.23944466	     -0.00802669	      0.46327937	     -1.15091290	     -0.00493910	      0.35191239	     -1.06238114	     -0.06174224	      2.56998278	     -7.87819358	      0.00000000	      0.00000000	     18.74630677	      2.57201558	      4.07622393	     18.33934356	    -10.15434799	    139.38934799	      2.36387993	      1.73742041	     -5.00723933	    -11.30675848	     13.61523714	    -12.76047647	    127.04658988	      3.34192470	     13.15324637	     -2.60129449	      0.32025913
